{
	"asset":{
		"generator":"Khronos glTF Blender I/O v5.0.21",
		"version":"2.0"
	},
	"scene":0,
	"scenes":[
		{
			"name":"Scene",
			"nodes":[
				0
			]
		}
	],
	"nodes":[
		{
			"mesh":0,
			"name":"Cylinder",
			"translation":[
				0,
				1.434268832206726,
				0
			]
		}
	],
	"materials":[
		{
			"doubleSided":true,
			"name":"Material.001",
			"pbrMetallicRoughness":{
				"baseColorFactor":[
					0.09462755918502808,
					0.04159945622086525,
					0.005584120284765959,
					1
				],
				"metallicFactor":0,
				"roughnessFactor":0.8386243581771851
			}
		},
		{
			"doubleSided":true,
			"name":"Material.002",
			"pbrMetallicRoughness":{
				"baseColorFactor":[
					0.010219499468803406,
					0.010219499468803406,
					0.010219499468803406,
					1
				],
				"metallicFactor":0.5476190447807312,
				"roughnessFactor":0.5
			}
		}
	],
	"meshes":[
		{
			"name":"Cylinder",
			"primitives":[
				{
					"attributes":{
						"POSITION":0,
						"NORMAL":1,
						"TEXCOORD_0":2
					},
					"indices":3,
					"material":0
				},
				{
					"attributes":{
						"POSITION":4,
						"NORMAL":5,
						"TEXCOORD_0":6
					},
					"indices":7,
					"material":1
				}
			]
		}
	],
	"accessors":[
		{
			"bufferView":0,
			"componentType":5126,
			"count":448,
			"max":[
				0.9646185040473938,
				1.0000003576278687,
				0.9631223678588867
			],
			"min":[
				-0.9646185040473938,
				-1,
				-0.9631223678588867
			],
			"type":"VEC3"
		},
		{
			"bufferView":1,
			"componentType":5126,
			"count":448,
			"type":"VEC3"
		},
		{
			"bufferView":2,
			"componentType":5126,
			"count":448,
			"type":"VEC2"
		},
		{
			"bufferView":3,
			"componentType":5123,
			"count":756,
			"type":"SCALAR"
		},
		{
			"bufferView":4,
			"componentType":5126,
			"count":256,
			"max":[
				0.9646185040473938,
				0.3899042010307312,
				0.9631223678588867
			],
			"min":[
				-0.9646185040473938,
				-0.40997835993766785,
				-0.9631223678588867
			],
			"type":"VEC3"
		},
		{
			"bufferView":5,
			"componentType":5126,
			"count":256,
			"type":"VEC3"
		},
		{
			"bufferView":6,
			"componentType":5126,
			"count":256,
			"type":"VEC2"
		},
		{
			"bufferView":7,
			"componentType":5123,
			"count":384,
			"type":"SCALAR"
		}
	],
	"bufferViews":[
		{
			"buffer":0,
			"byteLength":5376,
			"byteOffset":0,
			"target":34962
		},
		{
			"buffer":0,
			"byteLength":5376,
			"byteOffset":5376,
			"target":34962
		},
		{
			"buffer":0,
			"byteLength":3584,
			"byteOffset":10752,
			"target":34962
		},
		{
			"buffer":0,
			"byteLength":1512,
			"byteOffset":14336,
			"target":34963
		},
		{
			"buffer":0,
			"byteLength":3072,
			"byteOffset":15848,
			"target":34962
		},
		{
			"buffer":0,
			"byteLength":3072,
			"byteOffset":18920,
			"target":34962
		},
		{
			"buffer":0,
			"byteLength":2048,
			"byteOffset":21992,
			"target":34962
		},
		{
			"buffer":0,
			"byteLength":768,
			"byteOffset":24040,
			"target":34963
		}
	],
	"buffers":[
		{
			"byteLength":24808,
			"uri":"Barrel-3227b50f6bf6ba2cc95a3d2ecadd3c97.bin"
		}
	]
}
