{
	"asset":{
		"generator":"Khronos glTF Blender I/O v5.0.21",
		"version":"2.0"
	},
	"scene":0,
	"scenes":[
		{
			"name":"Scene",
			"nodes":[
				0
			]
		}
	],
	"nodes":[
		{
			"mesh":0,
			"name":"Cylinder",
			"rotation":[
				0,
				0,
				-0.011494084261357784,
				0.9999339580535889
			],
			"scale":[
				0.019612986594438553,
				0.5,
				0.022357052192091942
			],
			"translation":[
				0,
				0.565778374671936,
				0
			]
		}
	],
	"animations":[
		{
			"channels":[
				{
					"sampler":0,
					"target":{
						"node":0,
						"path":"translation"
					}
				},
				{
					"sampler":1,
					"target":{
						"node":0,
						"path":"rotation"
					}
				},
				{
					"sampler":2,
					"target":{
						"node":0,
						"path":"scale"
					}
				}
			],
			"name":"Attack",
			"samplers":[
				{
					"input":8,
					"interpolation":"LINEAR",
					"output":9
				},
				{
					"input":8,
					"interpolation":"LINEAR",
					"output":10
				},
				{
					"input":11,
					"interpolation":"STEP",
					"output":12
				}
			]
		}
	],
	"materials":[
		{
			"doubleSided":true,
			"name":"Material.003",
			"pbrMetallicRoughness":{
				"baseColorFactor":[
					0.8000074625015259,
					0.5184178352355957,
					0.03581070154905319,
					1
				],
				"metallicFactor":0.8730158805847168,
				"roughnessFactor":0.35079365968704224
			}
		},
		{
			"doubleSided":true,
			"name":"Material.004",
			"pbrMetallicRoughness":{
				"baseColorFactor":[
					0.08164777606725693,
					0.021443314850330353,
					0.00617890153080225,
					1
				],
				"metallicFactor":0,
				"roughnessFactor":0.5
			}
		}
	],
	"meshes":[
		{
			"name":"Cylinder",
			"primitives":[
				{
					"attributes":{
						"POSITION":0,
						"NORMAL":1,
						"TEXCOORD_0":2
					},
					"indices":3,
					"material":0
				},
				{
					"attributes":{
						"POSITION":4,
						"NORMAL":5,
						"TEXCOORD_0":6
					},
					"indices":7,
					"material":1
				}
			]
		}
	],
	"accessors":[
		{
			"bufferView":0,
			"componentType":5126,
			"count":560,
			"max":[
				0.9908628463745117,
				1.0562766790390015,
				0.943062424659729
			],
			"min":[
				-0.9908587336540222,
				0.8541589379310608,
				-0.9430637955665588
			],
			"type":"VEC3"
		},
		{
			"bufferView":1,
			"componentType":5126,
			"count":560,
			"type":"VEC3"
		},
		{
			"bufferView":2,
			"componentType":5126,
			"count":560,
			"type":"VEC2"
		},
		{
			"bufferView":3,
			"componentType":5123,
			"count":2592,
			"type":"SCALAR"
		},
		{
			"bufferView":4,
			"componentType":5126,
			"count":723,
			"max":[
				0.701941728591919,
				1.0228124856948853,
				0.650999903678894
			],
			"min":[
				-0.7019401788711548,
				-1,
				-0.650999903678894
			],
			"type":"VEC3"
		},
		{
			"bufferView":5,
			"componentType":5126,
			"count":723,
			"type":"VEC3"
		},
		{
			"bufferView":6,
			"componentType":5126,
			"count":723,
			"type":"VEC2"
		},
		{
			"bufferView":7,
			"componentType":5123,
			"count":3156,
			"type":"SCALAR"
		},
		{
			"bufferView":8,
			"componentType":5126,
			"count":10,
			"max":[
				0.4166666666666667
			],
			"min":[
				0.041666666666666664
			],
			"type":"SCALAR"
		},
		{
			"bufferView":9,
			"componentType":5126,
			"count":10,
			"type":"VEC3"
		},
		{
			"bufferView":10,
			"componentType":5126,
			"count":10,
			"type":"VEC4"
		},
		{
			"bufferView":11,
			"componentType":5126,
			"count":2,
			"max":[
				0.4166666666666667
			],
			"min":[
				0.041666666666666664
			],
			"type":"SCALAR"
		},
		{
			"bufferView":12,
			"componentType":5126,
			"count":2,
			"type":"VEC3"
		}
	],
	"bufferViews":[
		{
			"buffer":0,
			"byteLength":6720,
			"byteOffset":0,
			"target":34962
		},
		{
			"buffer":0,
			"byteLength":6720,
			"byteOffset":6720,
			"target":34962
		},
		{
			"buffer":0,
			"byteLength":4480,
			"byteOffset":13440,
			"target":34962
		},
		{
			"buffer":0,
			"byteLength":5184,
			"byteOffset":17920,
			"target":34963
		},
		{
			"buffer":0,
			"byteLength":8676,
			"byteOffset":23104,
			"target":34962
		},
		{
			"buffer":0,
			"byteLength":8676,
			"byteOffset":31780,
			"target":34962
		},
		{
			"buffer":0,
			"byteLength":5784,
			"byteOffset":40456,
			"target":34962
		},
		{
			"buffer":0,
			"byteLength":6312,
			"byteOffset":46240,
			"target":34963
		},
		{
			"buffer":0,
			"byteLength":40,
			"byteOffset":52552
		},
		{
			"buffer":0,
			"byteLength":120,
			"byteOffset":52592
		},
		{
			"buffer":0,
			"byteLength":160,
			"byteOffset":52712
		},
		{
			"buffer":0,
			"byteLength":8,
			"byteOffset":52872
		},
		{
			"buffer":0,
			"byteLength":24,
			"byteOffset":52880
		}
	],
	"buffers":[
		{
			"byteLength":52904,
			"uri":"Cane-3a8f68863e9928c39a40aea977207c88.bin"
		}
	]
}
