{
	"asset":{
		"generator":"Khronos glTF Blender I/O v5.0.21",
		"version":"2.0"
	},
	"scene":0,
	"scenes":[
		{
			"name":"Scene",
			"nodes":[
				0
			]
		}
	],
	"nodes":[
		{
			"mesh":0,
			"name":"Cube.002",
			"rotation":[
				0.498558908700943,
				0.4985588490962982,
				0.5014370679855347,
				0.5014370083808899
			],
			"scale":[
				1.1989147663116455,
				2.411057472229004,
				1.0000797510147095
			],
			"translation":[
				6.717682838439941,
				7.788351058959961,
				-0.2082200050354004
			]
		}
	],
	"materials":[
		{
			"doubleSided":true,
			"name":"Material.001",
			"pbrMetallicRoughness":{
				"baseColorFactor":[
					0.39077895879745483,
					0.2752944827079773,
					0.17262721061706543,
					1
				],
				"metallicFactor":0,
				"roughnessFactor":0.5
			}
		},
		{
			"doubleSided":true,
			"name":"Material.006",
			"pbrMetallicRoughness":{
				"baseColorFactor":[
					0.011129903607070446,
					0.17529189586639404,
					0.015609173104166985,
					1
				],
				"metallicFactor":0,
				"roughnessFactor":0.1962457299232483
			}
		},
		{
			"doubleSided":true,
			"name":"Material",
			"pbrMetallicRoughness":{
				"baseColorFactor":[
					0.902123212814331,
					0.8332561254501343,
					0.05685300752520561,
					1
				],
				"metallicFactor":0.9078498482704163,
				"roughnessFactor":0.3600682318210602
			}
		}
	],
	"meshes":[
		{
			"name":"Cube.002",
			"primitives":[
				{
					"attributes":{
						"POSITION":0,
						"NORMAL":1,
						"TEXCOORD_0":2
					},
					"indices":3,
					"material":0
				},
				{
					"attributes":{
						"POSITION":4,
						"NORMAL":5,
						"TEXCOORD_0":6
					},
					"indices":7,
					"material":1
				},
				{
					"attributes":{
						"POSITION":8,
						"NORMAL":9,
						"TEXCOORD_0":10
					},
					"indices":11,
					"material":2
				}
			]
		}
	],
	"accessors":[
		{
			"bufferView":0,
			"componentType":5126,
			"count":74,
			"max":[
				0.794966459274292,
				2.676016092300415,
				1.0302953720092773
			],
			"min":[
				-0.8732088804244995,
				-2.6323904991149902,
				-5.801762580871582
			],
			"type":"VEC3"
		},
		{
			"bufferView":1,
			"componentType":5126,
			"count":74,
			"type":"VEC3"
		},
		{
			"bufferView":2,
			"componentType":5126,
			"count":74,
			"type":"VEC2"
		},
		{
			"bufferView":3,
			"componentType":5123,
			"count":114,
			"type":"SCALAR"
		},
		{
			"bufferView":4,
			"componentType":5126,
			"count":4,
			"max":[
				0.7075052261352539,
				1.8459863662719727,
				-4.834088325500488
			],
			"min":[
				-0.9606702327728271,
				0.2978634834289551,
				-5.70692253112793
			],
			"type":"VEC3"
		},
		{
			"bufferView":5,
			"componentType":5126,
			"count":4,
			"type":"VEC3"
		},
		{
			"bufferView":6,
			"componentType":5126,
			"count":4,
			"type":"VEC2"
		},
		{
			"bufferView":7,
			"componentType":5123,
			"count":6,
			"type":"SCALAR"
		},
		{
			"bufferView":8,
			"componentType":5126,
			"count":88,
			"max":[
				0.7075052261352539,
				2.5108728408813477,
				0.6258813142776489
			],
			"min":[
				-0.9606703519821167,
				-2.5266077518463135,
				-5.718599319458008
			],
			"type":"VEC3"
		},
		{
			"bufferView":9,
			"componentType":5126,
			"count":88,
			"type":"VEC3"
		},
		{
			"bufferView":10,
			"componentType":5126,
			"count":88,
			"type":"VEC2"
		},
		{
			"bufferView":11,
			"componentType":5123,
			"count":138,
			"type":"SCALAR"
		}
	],
	"bufferViews":[
		{
			"buffer":0,
			"byteLength":888,
			"byteOffset":0,
			"target":34962
		},
		{
			"buffer":0,
			"byteLength":888,
			"byteOffset":888,
			"target":34962
		},
		{
			"buffer":0,
			"byteLength":592,
			"byteOffset":1776,
			"target":34962
		},
		{
			"buffer":0,
			"byteLength":228,
			"byteOffset":2368,
			"target":34963
		},
		{
			"buffer":0,
			"byteLength":48,
			"byteOffset":2596,
			"target":34962
		},
		{
			"buffer":0,
			"byteLength":48,
			"byteOffset":2644,
			"target":34962
		},
		{
			"buffer":0,
			"byteLength":32,
			"byteOffset":2692,
			"target":34962
		},
		{
			"buffer":0,
			"byteLength":12,
			"byteOffset":2724,
			"target":34963
		},
		{
			"buffer":0,
			"byteLength":1056,
			"byteOffset":2736,
			"target":34962
		},
		{
			"buffer":0,
			"byteLength":1056,
			"byteOffset":3792,
			"target":34962
		},
		{
			"buffer":0,
			"byteLength":704,
			"byteOffset":4848,
			"target":34962
		},
		{
			"buffer":0,
			"byteLength":276,
			"byteOffset":5552,
			"target":34963
		}
	],
	"buffers":[
		{
			"byteLength":5828,
			"uri":"ceiling-95a200bd8fc80ee524caa41003fb326a.bin"
		}
	]
}
