{
	"asset":{
		"generator":"Khronos glTF Blender I/O v5.0.21",
		"version":"2.0"
	},
	"scene":0,
	"scenes":[
		{
			"name":"Scene",
			"nodes":[
				0
			]
		}
	],
	"nodes":[
		{
			"mesh":0,
			"name":"Cube.001",
			"rotation":[
				-0.7091391086578369,
				0,
				0,
				0.7050685882568359
			],
			"scale":[
				1.1989147663116455,
				2.411057472229004,
				1.0000797510147095
			],
			"translation":[
				0.04690295830368996,
				5.847011089324951,
				-0.2082200050354004
			]
		}
	],
	"materials":[
		{
			"doubleSided":true,
			"name":"Material.002",
			"pbrMetallicRoughness":{
				"baseColorFactor":[
					0.39077895879745483,
					0.2752944827079773,
					0.17262721061706543,
					1
				],
				"metallicFactor":0,
				"roughnessFactor":0.5
			}
		},
		{
			"doubleSided":true,
			"name":"Material.005",
			"pbrMetallicRoughness":{
				"baseColorFactor":[
					0.8000074625015259,
					0.6373075246810913,
					0.15849928557872772,
					1
				],
				"metallicFactor":0.7713310718536377,
				"roughnessFactor":0.2883959114551544
			}
		}
	],
	"meshes":[
		{
			"name":"Cube.001",
			"primitives":[
				{
					"attributes":{
						"POSITION":0,
						"NORMAL":1,
						"TEXCOORD_0":2,
						"TANGENT":3
					},
					"indices":4,
					"material":0
				},
				{
					"attributes":{
						"POSITION":5,
						"NORMAL":6,
						"TEXCOORD_0":7,
						"TANGENT":8
					},
					"indices":9,
					"material":1
				}
			]
		}
	],
	"accessors":[
		{
			"bufferView":0,
			"componentType":5126,
			"count":96,
			"max":[
				1,
				2.676016092300415,
				1.0302953720092773
			],
			"min":[
				-1,
				-2.6323904991149902,
				-5.801762580871582
			],
			"type":"VEC3"
		},
		{
			"bufferView":1,
			"componentType":5126,
			"count":96,
			"type":"VEC3"
		},
		{
			"bufferView":2,
			"componentType":5126,
			"count":96,
			"type":"VEC2"
		},
		{
			"bufferView":3,
			"componentType":5126,
			"count":96,
			"type":"VEC4"
		},
		{
			"bufferView":4,
			"componentType":5123,
			"count":144,
			"type":"SCALAR"
		},
		{
			"bufferView":5,
			"componentType":5126,
			"count":72,
			"max":[
				0.7075052261352539,
				2.356959342956543,
				0.013133347034454346
			],
			"min":[
				-0.9606701135635376,
				-2.5266077518463135,
				-5.718599319458008
			],
			"type":"VEC3"
		},
		{
			"bufferView":6,
			"componentType":5126,
			"count":72,
			"type":"VEC3"
		},
		{
			"bufferView":7,
			"componentType":5126,
			"count":72,
			"type":"VEC2"
		},
		{
			"bufferView":8,
			"componentType":5126,
			"count":72,
			"type":"VEC4"
		},
		{
			"bufferView":9,
			"componentType":5123,
			"count":108,
			"type":"SCALAR"
		}
	],
	"bufferViews":[
		{
			"buffer":0,
			"byteLength":1152,
			"byteOffset":0,
			"target":34962
		},
		{
			"buffer":0,
			"byteLength":1152,
			"byteOffset":1152,
			"target":34962
		},
		{
			"buffer":0,
			"byteLength":768,
			"byteOffset":2304,
			"target":34962
		},
		{
			"buffer":0,
			"byteLength":1536,
			"byteOffset":3072,
			"target":34962
		},
		{
			"buffer":0,
			"byteLength":288,
			"byteOffset":4608,
			"target":34963
		},
		{
			"buffer":0,
			"byteLength":864,
			"byteOffset":4896,
			"target":34962
		},
		{
			"buffer":0,
			"byteLength":864,
			"byteOffset":5760,
			"target":34962
		},
		{
			"buffer":0,
			"byteLength":576,
			"byteOffset":6624,
			"target":34962
		},
		{
			"buffer":0,
			"byteLength":1152,
			"byteOffset":7200,
			"target":34962
		},
		{
			"buffer":0,
			"byteLength":216,
			"byteOffset":8352,
			"target":34963
		}
	],
	"buffers":[
		{
			"byteLength":8568,
			"uri":"doorway-d5a422d589da3e4795c57d25d9084dc8.bin"
		}
	]
}
