{
	"asset":{
		"generator":"Khronos glTF Blender I/O v5.0.21",
		"version":"2.0"
	},
	"scene":0,
	"scenes":[
		{
			"name":"Scene",
			"nodes":[
				0,
				1,
				2
			]
		}
	],
	"nodes":[
		{
			"mesh":0,
			"name":"Sphere.001",
			"scale":[
				0.17959988117218018,
				0.7052831649780273,
				0.39882028102874756
			],
			"translation":[
				-0.2061144858598709,
				0.6555603742599487,
				-0.04100314900279045
			]
		},
		{
			"mesh":1,
			"name":"Sphere",
			"scale":[
				0.5866008996963501,
				0.5544995665550232,
				0.5583041310310364
			],
			"translation":[
				-0.02266470156610012,
				1.6768921613693237,
				-0.050635926425457
			]
		},
		{
			"mesh":2,
			"name":"Cylinder.003",
			"rotation":[
				0.8256542682647705,
				0.5638749599456787,
				0.012895980849862099,
				0.013191170059144497
			],
			"scale":[
				-0.03564055263996124,
				-0.13335737586021423,
				-0.009723562747240067
			],
			"translation":[
				-0.2484954297542572,
				0.7389119863510132,
				0.42935001850128174
			]
		}
	],
	"animations":[
		{
			"channels":[
				{
					"sampler":0,
					"target":{
						"node":0,
						"path":"translation"
					}
				},
				{
					"sampler":1,
					"target":{
						"node":0,
						"path":"rotation"
					}
				},
				{
					"sampler":2,
					"target":{
						"node":0,
						"path":"scale"
					}
				}
			],
			"name":"Sphere.001Action",
			"samplers":[
				{
					"input":38,
					"interpolation":"STEP",
					"output":39
				},
				{
					"input":38,
					"interpolation":"STEP",
					"output":40
				},
				{
					"input":38,
					"interpolation":"STEP",
					"output":41
				}
			]
		},
		{
			"channels":[
				{
					"sampler":0,
					"target":{
						"node":1,
						"path":"translation"
					}
				},
				{
					"sampler":1,
					"target":{
						"node":1,
						"path":"rotation"
					}
				},
				{
					"sampler":2,
					"target":{
						"node":1,
						"path":"scale"
					}
				}
			],
			"name":"SphereAction",
			"samplers":[
				{
					"input":38,
					"interpolation":"STEP",
					"output":42
				},
				{
					"input":38,
					"interpolation":"STEP",
					"output":40
				},
				{
					"input":38,
					"interpolation":"STEP",
					"output":43
				}
			]
		},
		{
			"channels":[
				{
					"sampler":0,
					"target":{
						"node":2,
						"path":"translation"
					}
				},
				{
					"sampler":1,
					"target":{
						"node":2,
						"path":"rotation"
					}
				},
				{
					"sampler":2,
					"target":{
						"node":2,
						"path":"scale"
					}
				}
			],
			"name":"Cylinder.003Action",
			"samplers":[
				{
					"input":44,
					"interpolation":"LINEAR",
					"output":45
				},
				{
					"input":44,
					"interpolation":"LINEAR",
					"output":46
				},
				{
					"input":38,
					"interpolation":"STEP",
					"output":47
				}
			]
		}
	],
	"materials":[
		{
			"doubleSided":true,
			"name":"Material.005",
			"pbrMetallicRoughness":{
				"baseColorFactor":[
					0.20250310003757477,
					0.08264658600091934,
					0.034037210047245026,
					1
				],
				"metallicFactor":0,
				"roughnessFactor":0.861774742603302
			}
		},
		{
			"doubleSided":true,
			"name":"Material.006",
			"pbrMetallicRoughness":{
				"baseColorFactor":[
					0.014443841762840748,
					0.18116427958011627,
					0.023153364658355713,
					1
				],
				"metallicFactor":0,
				"roughnessFactor":0.8208191394805908
			}
		},
		{
			"doubleSided":true,
			"name":"Material.001",
			"pbrMetallicRoughness":{
				"baseColorFactor":[
					0.014443841762840748,
					0.18116427958011627,
					0.023153364658355713,
					1
				],
				"metallicFactor":0,
				"roughnessFactor":0.8208191394805908
			}
		},
		{
			"doubleSided":true,
			"name":"Material.002",
			"pbrMetallicRoughness":{
				"baseColorFactor":[
					0.5910515189170837,
					0.599538266658783,
					0.5826360583305359,
					1
				],
				"metallicFactor":0,
				"roughnessFactor":0.39078497886657715
			}
		},
		{
			"doubleSided":true,
			"name":"Material.003",
			"pbrMetallicRoughness":{
				"baseColorFactor":[
					0.002882166998460889,
					0.002937951358035207,
					0.0028263877611607313,
					1
				],
				"metallicFactor":0,
				"roughnessFactor":0.27815699577331543
			}
		},
		{
			"doubleSided":true,
			"name":"Material.004",
			"pbrMetallicRoughness":{
				"baseColorFactor":[
					0.29119160771369934,
					0.06174232065677643,
					0.07498729228973389,
					1
				],
				"metallicFactor":0,
				"roughnessFactor":0.35324233770370483
			}
		},
		{
			"doubleSided":true,
			"name":"Material.007",
			"pbrMetallicRoughness":{
				"baseColorFactor":[
					0.030357487499713898,
					0.03026341274380684,
					0.03193139284849167,
					1
				],
				"metallicFactor":0,
				"roughnessFactor":0.5
			}
		},
		{
			"doubleSided":true,
			"name":"Material.008",
			"pbrMetallicRoughness":{
				"baseColorFactor":[
					0.06019787862896919,
					0.021242089569568634,
					0.0036678588949143887,
					1
				],
				"metallicFactor":0,
				"roughnessFactor":0.8071672320365906
			}
		},
		{
			"doubleSided":true,
			"name":"Material.009",
			"pbrMetallicRoughness":{
				"baseColorFactor":[
					0.7855826616287231,
					1,
					0.642360508441925,
					1
				],
				"roughnessFactor":0.40784981846809387
			}
		}
	],
	"meshes":[
		{
			"name":"Sphere.001",
			"primitives":[
				{
					"attributes":{
						"POSITION":0,
						"NORMAL":1,
						"TEXCOORD_0":2,
						"TANGENT":3
					},
					"indices":4,
					"material":0
				},
				{
					"attributes":{
						"POSITION":5,
						"NORMAL":6,
						"TEXCOORD_0":7,
						"TANGENT":8
					},
					"indices":9,
					"material":1
				}
			]
		},
		{
			"name":"Sphere",
			"primitives":[
				{
					"attributes":{
						"POSITION":10,
						"NORMAL":11,
						"TEXCOORD_0":12
					},
					"indices":13,
					"material":2
				},
				{
					"attributes":{
						"POSITION":14,
						"NORMAL":15,
						"TEXCOORD_0":16
					},
					"indices":17,
					"material":3
				},
				{
					"attributes":{
						"POSITION":18,
						"NORMAL":19,
						"TEXCOORD_0":20
					},
					"indices":21,
					"material":4
				},
				{
					"attributes":{
						"POSITION":22,
						"NORMAL":23,
						"TEXCOORD_0":24
					},
					"indices":25,
					"material":5
				},
				{
					"attributes":{
						"POSITION":26,
						"NORMAL":27,
						"TEXCOORD_0":28
					},
					"indices":29,
					"material":6
				}
			]
		},
		{
			"name":"Cylinder.005",
			"primitives":[
				{
					"attributes":{
						"POSITION":30,
						"NORMAL":31,
						"TEXCOORD_0":32
					},
					"indices":33,
					"material":7
				},
				{
					"attributes":{
						"POSITION":34,
						"NORMAL":35,
						"TEXCOORD_0":36
					},
					"indices":37,
					"material":8
				}
			]
		}
	],
	"accessors":[
		{
			"bufferView":0,
			"componentType":5126,
			"count":451,
			"max":[
				0.9999997019767761,
				1,
				0.9999993443489075
			],
			"min":[
				-1.048926591873169,
				-0.8845946192741394,
				-1
			],
			"type":"VEC3"
		},
		{
			"bufferView":1,
			"componentType":5126,
			"count":451,
			"type":"VEC3"
		},
		{
			"bufferView":2,
			"componentType":5126,
			"count":451,
			"type":"VEC2"
		},
		{
			"bufferView":3,
			"componentType":5126,
			"count":451,
			"type":"VEC4"
		},
		{
			"bufferView":4,
			"componentType":5123,
			"count":2268,
			"type":"SCALAR"
		},
		{
			"bufferView":5,
			"componentType":5126,
			"count":42,
			"max":[
				0.9807851314544678,
				0.9238795042037964,
				0.5132796168327332
			],
			"min":[
				-0.5477913618087769,
				0.19509032368659973,
				-0.39284747838974
			],
			"type":"VEC3"
		},
		{
			"bufferView":6,
			"componentType":5126,
			"count":42,
			"type":"VEC3"
		},
		{
			"bufferView":7,
			"componentType":5126,
			"count":42,
			"type":"VEC2"
		},
		{
			"bufferView":8,
			"componentType":5126,
			"count":42,
			"type":"VEC4"
		},
		{
			"bufferView":9,
			"componentType":5123,
			"count":132,
			"type":"SCALAR"
		},
		{
			"bufferView":10,
			"componentType":5126,
			"count":466,
			"max":[
				0.4362671971321106,
				0.9807852506637573,
				0.9999993443489075
			],
			"min":[
				-1.0126118659973145,
				-1,
				-1
			],
			"type":"VEC3"
		},
		{
			"bufferView":11,
			"componentType":5126,
			"count":466,
			"type":"VEC3"
		},
		{
			"bufferView":12,
			"componentType":5126,
			"count":466,
			"type":"VEC2"
		},
		{
			"bufferView":13,
			"componentType":5123,
			"count":2340,
			"type":"SCALAR"
		},
		{
			"bufferView":14,
			"componentType":5126,
			"count":31,
			"max":[
				0.14688751101493835,
				0.3826834559440613,
				0.5448950529098511
			],
			"min":[
				0.026838690042495728,
				-0.6531291007995605,
				-0.5448949933052063
			],
			"type":"VEC3"
		},
		{
			"bufferView":15,
			"componentType":5126,
			"count":31,
			"type":"VEC3"
		},
		{
			"bufferView":16,
			"componentType":5126,
			"count":31,
			"type":"VEC2"
		},
		{
			"bufferView":17,
			"componentType":5123,
			"count":96,
			"type":"SCALAR"
		},
		{
			"bufferView":18,
			"componentType":5126,
			"count":8,
			"max":[
				0.040972258895635605,
				0.3203752040863037,
				0.47139260172843933
			],
			"min":[
				0.03485776111483574,
				0.2573985755443573,
				-0.47139260172843933
			],
			"type":"VEC3"
		},
		{
			"bufferView":19,
			"componentType":5126,
			"count":8,
			"type":"VEC3"
		},
		{
			"bufferView":20,
			"componentType":5126,
			"count":8,
			"type":"VEC2"
		},
		{
			"bufferView":21,
			"componentType":5123,
			"count":12,
			"type":"SCALAR"
		},
		{
			"bufferView":22,
			"componentType":5126,
			"count":16,
			"max":[
				0.04648103192448616,
				0.3619100749492645,
				0.5203895568847656
			],
			"min":[
				0.029512224718928337,
				0.21586371958255768,
				-0.5203894972801208
			],
			"type":"VEC3"
		},
		{
			"bufferView":23,
			"componentType":5126,
			"count":16,
			"type":"VEC3"
		},
		{
			"bufferView":24,
			"componentType":5126,
			"count":16,
			"type":"VEC2"
		},
		{
			"bufferView":25,
			"componentType":5123,
			"count":48,
			"type":"SCALAR"
		},
		{
			"bufferView":26,
			"componentType":5126,
			"count":171,
			"max":[
				0.1333128958940506,
				1,
				0.6532812714576721
			],
			"min":[
				-0.9439449310302734,
				-0.5555702447891235,
				-0.6532811522483826
			],
			"type":"VEC3"
		},
		{
			"bufferView":27,
			"componentType":5126,
			"count":171,
			"type":"VEC3"
		},
		{
			"bufferView":28,
			"componentType":5126,
			"count":171,
			"type":"VEC2"
		},
		{
			"bufferView":29,
			"componentType":5123,
			"count":552,
			"type":"SCALAR"
		},
		{
			"bufferView":30,
			"componentType":5126,
			"count":448,
			"max":[
				3.8148155212402344,
				1,
				1.5910990238189697
			],
			"min":[
				-4.527346611022949,
				-7.417984962463379,
				-1.5910961627960205
			],
			"type":"VEC3"
		},
		{
			"bufferView":31,
			"componentType":5126,
			"count":448,
			"type":"VEC3"
		},
		{
			"bufferView":32,
			"componentType":5126,
			"count":448,
			"type":"VEC2"
		},
		{
			"bufferView":33,
			"componentType":5123,
			"count":924,
			"type":"SCALAR"
		},
		{
			"bufferView":34,
			"componentType":5126,
			"count":128,
			"max":[
				2.7211387157440186,
				-1.0530364513397217,
				0.5479593873023987
			],
			"min":[
				-2.7211387157440186,
				-7.417984962463379,
				-0.5479525923728943
			],
			"type":"VEC3"
		},
		{
			"bufferView":35,
			"componentType":5126,
			"count":128,
			"type":"VEC3"
		},
		{
			"bufferView":36,
			"componentType":5126,
			"count":128,
			"type":"VEC2"
		},
		{
			"bufferView":37,
			"componentType":5123,
			"count":192,
			"type":"SCALAR"
		},
		{
			"bufferView":38,
			"componentType":5126,
			"count":2,
			"max":[
				0.7083333333333334
			],
			"min":[
				0.041666666666666664
			],
			"type":"SCALAR"
		},
		{
			"bufferView":39,
			"componentType":5126,
			"count":2,
			"type":"VEC3"
		},
		{
			"bufferView":40,
			"componentType":5126,
			"count":2,
			"type":"VEC4"
		},
		{
			"bufferView":41,
			"componentType":5126,
			"count":2,
			"type":"VEC3"
		},
		{
			"bufferView":42,
			"componentType":5126,
			"count":2,
			"type":"VEC3"
		},
		{
			"bufferView":43,
			"componentType":5126,
			"count":2,
			"type":"VEC3"
		},
		{
			"bufferView":44,
			"componentType":5126,
			"count":17,
			"max":[
				0.7083333333333334
			],
			"min":[
				0.041666666666666664
			],
			"type":"SCALAR"
		},
		{
			"bufferView":45,
			"componentType":5126,
			"count":17,
			"type":"VEC3"
		},
		{
			"bufferView":46,
			"componentType":5126,
			"count":17,
			"type":"VEC4"
		},
		{
			"bufferView":47,
			"componentType":5126,
			"count":2,
			"type":"VEC3"
		}
	],
	"bufferViews":[
		{
			"buffer":0,
			"byteLength":5412,
			"byteOffset":0,
			"target":34962
		},
		{
			"buffer":0,
			"byteLength":5412,
			"byteOffset":5412,
			"target":34962
		},
		{
			"buffer":0,
			"byteLength":3608,
			"byteOffset":10824,
			"target":34962
		},
		{
			"buffer":0,
			"byteLength":7216,
			"byteOffset":14432,
			"target":34962
		},
		{
			"buffer":0,
			"byteLength":4536,
			"byteOffset":21648,
			"target":34963
		},
		{
			"buffer":0,
			"byteLength":504,
			"byteOffset":26184,
			"target":34962
		},
		{
			"buffer":0,
			"byteLength":504,
			"byteOffset":26688,
			"target":34962
		},
		{
			"buffer":0,
			"byteLength":336,
			"byteOffset":27192,
			"target":34962
		},
		{
			"buffer":0,
			"byteLength":672,
			"byteOffset":27528,
			"target":34962
		},
		{
			"buffer":0,
			"byteLength":264,
			"byteOffset":28200,
			"target":34963
		},
		{
			"buffer":0,
			"byteLength":5592,
			"byteOffset":28464,
			"target":34962
		},
		{
			"buffer":0,
			"byteLength":5592,
			"byteOffset":34056,
			"target":34962
		},
		{
			"buffer":0,
			"byteLength":3728,
			"byteOffset":39648,
			"target":34962
		},
		{
			"buffer":0,
			"byteLength":4680,
			"byteOffset":43376,
			"target":34963
		},
		{
			"buffer":0,
			"byteLength":372,
			"byteOffset":48056,
			"target":34962
		},
		{
			"buffer":0,
			"byteLength":372,
			"byteOffset":48428,
			"target":34962
		},
		{
			"buffer":0,
			"byteLength":248,
			"byteOffset":48800,
			"target":34962
		},
		{
			"buffer":0,
			"byteLength":192,
			"byteOffset":49048,
			"target":34963
		},
		{
			"buffer":0,
			"byteLength":96,
			"byteOffset":49240,
			"target":34962
		},
		{
			"buffer":0,
			"byteLength":96,
			"byteOffset":49336,
			"target":34962
		},
		{
			"buffer":0,
			"byteLength":64,
			"byteOffset":49432,
			"target":34962
		},
		{
			"buffer":0,
			"byteLength":24,
			"byteOffset":49496,
			"target":34963
		},
		{
			"buffer":0,
			"byteLength":192,
			"byteOffset":49520,
			"target":34962
		},
		{
			"buffer":0,
			"byteLength":192,
			"byteOffset":49712,
			"target":34962
		},
		{
			"buffer":0,
			"byteLength":128,
			"byteOffset":49904,
			"target":34962
		},
		{
			"buffer":0,
			"byteLength":96,
			"byteOffset":50032,
			"target":34963
		},
		{
			"buffer":0,
			"byteLength":2052,
			"byteOffset":50128,
			"target":34962
		},
		{
			"buffer":0,
			"byteLength":2052,
			"byteOffset":52180,
			"target":34962
		},
		{
			"buffer":0,
			"byteLength":1368,
			"byteOffset":54232,
			"target":34962
		},
		{
			"buffer":0,
			"byteLength":1104,
			"byteOffset":55600,
			"target":34963
		},
		{
			"buffer":0,
			"byteLength":5376,
			"byteOffset":56704,
			"target":34962
		},
		{
			"buffer":0,
			"byteLength":5376,
			"byteOffset":62080,
			"target":34962
		},
		{
			"buffer":0,
			"byteLength":3584,
			"byteOffset":67456,
			"target":34962
		},
		{
			"buffer":0,
			"byteLength":1848,
			"byteOffset":71040,
			"target":34963
		},
		{
			"buffer":0,
			"byteLength":1536,
			"byteOffset":72888,
			"target":34962
		},
		{
			"buffer":0,
			"byteLength":1536,
			"byteOffset":74424,
			"target":34962
		},
		{
			"buffer":0,
			"byteLength":1024,
			"byteOffset":75960,
			"target":34962
		},
		{
			"buffer":0,
			"byteLength":384,
			"byteOffset":76984,
			"target":34963
		},
		{
			"buffer":0,
			"byteLength":8,
			"byteOffset":77368
		},
		{
			"buffer":0,
			"byteLength":24,
			"byteOffset":77376
		},
		{
			"buffer":0,
			"byteLength":32,
			"byteOffset":77400
		},
		{
			"buffer":0,
			"byteLength":24,
			"byteOffset":77432
		},
		{
			"buffer":0,
			"byteLength":24,
			"byteOffset":77456
		},
		{
			"buffer":0,
			"byteLength":24,
			"byteOffset":77480
		},
		{
			"buffer":0,
			"byteLength":68,
			"byteOffset":77504
		},
		{
			"buffer":0,
			"byteLength":204,
			"byteOffset":77572
		},
		{
			"buffer":0,
			"byteLength":272,
			"byteOffset":77776
		},
		{
			"buffer":0,
			"byteLength":24,
			"byteOffset":78048
		}
	],
	"buffers":[
		{
			"byteLength":78072,
			"uri":"Goblin%281%29-6c0d64271984c084d7051d6fcf8cebda.bin"
		}
	]
}
