{
	"asset":{
		"generator":"Khronos glTF Blender I/O v5.0.21",
		"version":"2.0"
	},
	"scene":0,
	"scenes":[
		{
			"name":"Scene",
			"nodes":[
				0,
				1
			]
		}
	],
	"nodes":[
		{
			"mesh":0,
			"name":"Sphere",
			"scale":[
				0.5866008996963501,
				0.5544995665550232,
				0.5583041310310364
			],
			"translation":[
				-0.02266470156610012,
				1.6768921613693237,
				-0.050635926425457
			]
		},
		{
			"mesh":1,
			"name":"Sphere.001",
			"scale":[
				0.17959988117218018,
				0.7052831649780273,
				0.39882028102874756
			],
			"translation":[
				-0.2061144858598709,
				0.6555603742599487,
				-0.04100314900279045
			]
		}
	],
	"materials":[
		{
			"doubleSided":true,
			"name":"Material.001",
			"pbrMetallicRoughness":{
				"baseColorFactor":[
					0.3583166003227234,
					0.18347370624542236,
					0.04939616471529007,
					1
				],
				"metallicFactor":0,
				"roughnessFactor":0.8208191394805908
			}
		},
		{
			"doubleSided":true,
			"name":"Material.002",
			"pbrMetallicRoughness":{
				"baseColorFactor":[
					0.4076292812824249,
					0.4076292812824249,
					0.4076292812824249,
					1
				],
				"metallicFactor":0,
				"roughnessFactor":0.9948805570602417
			}
		},
		{
			"doubleSided":true,
			"name":"Material.003",
			"pbrMetallicRoughness":{
				"baseColorFactor":[
					0.002882166998460889,
					0.002937951358035207,
					0.0028263877611607313,
					1
				],
				"metallicFactor":0,
				"roughnessFactor":0.5
			}
		},
		{
			"doubleSided":true,
			"name":"Material.004",
			"pbrMetallicRoughness":{
				"baseColorFactor":[
					0.034435831010341644,
					0.029365863651037216,
					0.8000074625015259,
					1
				],
				"metallicFactor":0,
				"roughnessFactor":0.5
			}
		},
		{
			"doubleSided":true,
			"name":"Material.005",
			"pbrMetallicRoughness":{
				"baseColorFactor":[
					0.39077895879745483,
					0.024899158626794815,
					0.04225321486592293,
					1
				],
				"metallicFactor":0,
				"roughnessFactor":0.5
			}
		},
		{
			"doubleSided":true,
			"name":"Material.006",
			"pbrMetallicRoughness":{
				"baseColorFactor":[
					0,
					0,
					0,
					1
				],
				"metallicFactor":0,
				"roughnessFactor":0.5
			}
		}
	],
	"meshes":[
		{
			"name":"Sphere",
			"primitives":[
				{
					"attributes":{
						"POSITION":0,
						"NORMAL":1,
						"TEXCOORD_0":2,
						"TANGENT":3
					},
					"indices":4,
					"material":0
				},
				{
					"attributes":{
						"POSITION":5,
						"NORMAL":6,
						"TEXCOORD_0":7,
						"TANGENT":8
					},
					"indices":9,
					"material":1
				},
				{
					"attributes":{
						"POSITION":10,
						"NORMAL":11,
						"TEXCOORD_0":12,
						"TANGENT":13
					},
					"indices":14,
					"material":2
				},
				{
					"attributes":{
						"POSITION":15,
						"NORMAL":16,
						"TEXCOORD_0":17,
						"TANGENT":18
					},
					"indices":19,
					"material":3
				}
			]
		},
		{
			"name":"Sphere.001",
			"primitives":[
				{
					"attributes":{
						"POSITION":20,
						"NORMAL":21,
						"TEXCOORD_0":22,
						"TANGENT":23
					},
					"indices":24,
					"material":4
				},
				{
					"attributes":{
						"POSITION":25,
						"NORMAL":26,
						"TEXCOORD_0":27,
						"TANGENT":28
					},
					"indices":29,
					"material":5
				}
			]
		}
	],
	"accessors":[
		{
			"bufferView":0,
			"componentType":5126,
			"count":471,
			"max":[
				0.5573046803474426,
				1,
				0.98078453540802
			],
			"min":[
				-0.9439449310302734,
				-1,
				-0.9807841777801514
			],
			"type":"VEC3"
		},
		{
			"bufferView":1,
			"componentType":5126,
			"count":471,
			"type":"VEC3"
		},
		{
			"bufferView":2,
			"componentType":5126,
			"count":471,
			"type":"VEC2"
		},
		{
			"bufferView":3,
			"componentType":5126,
			"count":471,
			"type":"VEC4"
		},
		{
			"bufferView":4,
			"componentType":5123,
			"count":2040,
			"type":"SCALAR"
		},
		{
			"bufferView":5,
			"componentType":5126,
			"count":222,
			"max":[
				0.3188245892524719,
				0.7071067690849304,
				0.9999993443489075
			],
			"min":[
				-0.935078501701355,
				-0.9807852506637573,
				-1
			],
			"type":"VEC3"
		},
		{
			"bufferView":6,
			"componentType":5126,
			"count":222,
			"type":"VEC3"
		},
		{
			"bufferView":7,
			"componentType":5126,
			"count":222,
			"type":"VEC2"
		},
		{
			"bufferView":8,
			"componentType":5126,
			"count":222,
			"type":"VEC4"
		},
		{
			"bufferView":9,
			"componentType":5123,
			"count":924,
			"type":"SCALAR"
		},
		{
			"bufferView":10,
			"componentType":5126,
			"count":8,
			"max":[
				0.040972258895635605,
				0.3203752040863037,
				0.47139260172843933
			],
			"min":[
				0.03485776111483574,
				0.2573985755443573,
				-0.47139260172843933
			],
			"type":"VEC3"
		},
		{
			"bufferView":11,
			"componentType":5126,
			"count":8,
			"type":"VEC3"
		},
		{
			"bufferView":12,
			"componentType":5126,
			"count":8,
			"type":"VEC2"
		},
		{
			"bufferView":13,
			"componentType":5126,
			"count":8,
			"type":"VEC4"
		},
		{
			"bufferView":14,
			"componentType":5123,
			"count":12,
			"type":"SCALAR"
		},
		{
			"bufferView":15,
			"componentType":5126,
			"count":16,
			"max":[
				0.04648103192448616,
				0.3619100749492645,
				0.5203895568847656
			],
			"min":[
				0.029512224718928337,
				0.21586371958255768,
				-0.5203894972801208
			],
			"type":"VEC3"
		},
		{
			"bufferView":16,
			"componentType":5126,
			"count":16,
			"type":"VEC3"
		},
		{
			"bufferView":17,
			"componentType":5126,
			"count":16,
			"type":"VEC2"
		},
		{
			"bufferView":18,
			"componentType":5126,
			"count":16,
			"type":"VEC4"
		},
		{
			"bufferView":19,
			"componentType":5123,
			"count":48,
			"type":"SCALAR"
		},
		{
			"bufferView":20,
			"componentType":5126,
			"count":534,
			"max":[
				0.9238794445991516,
				1,
				0.9999993443489075
			],
			"min":[
				-1.048926591873169,
				-0.9999999403953552,
				-1
			],
			"type":"VEC3"
		},
		{
			"bufferView":21,
			"componentType":5126,
			"count":534,
			"type":"VEC3"
		},
		{
			"bufferView":22,
			"componentType":5126,
			"count":534,
			"type":"VEC2"
		},
		{
			"bufferView":23,
			"componentType":5126,
			"count":534,
			"type":"VEC4"
		},
		{
			"bufferView":24,
			"componentType":5123,
			"count":2640,
			"type":"SCALAR"
		},
		{
			"bufferView":25,
			"componentType":5126,
			"count":63,
			"max":[
				0.9999997019767761,
				0.9238795042037964,
				0.5555701851844788
			],
			"min":[
				-0.5477913618087769,
				-0.3826834559440613,
				-0.5555700063705444
			],
			"type":"VEC3"
		},
		{
			"bufferView":26,
			"componentType":5126,
			"count":63,
			"type":"VEC3"
		},
		{
			"bufferView":27,
			"componentType":5126,
			"count":63,
			"type":"VEC2"
		},
		{
			"bufferView":28,
			"componentType":5126,
			"count":63,
			"type":"VEC4"
		},
		{
			"bufferView":29,
			"componentType":5123,
			"count":240,
			"type":"SCALAR"
		}
	],
	"bufferViews":[
		{
			"buffer":0,
			"byteLength":5652,
			"byteOffset":0,
			"target":34962
		},
		{
			"buffer":0,
			"byteLength":5652,
			"byteOffset":5652,
			"target":34962
		},
		{
			"buffer":0,
			"byteLength":3768,
			"byteOffset":11304,
			"target":34962
		},
		{
			"buffer":0,
			"byteLength":7536,
			"byteOffset":15072,
			"target":34962
		},
		{
			"buffer":0,
			"byteLength":4080,
			"byteOffset":22608,
			"target":34963
		},
		{
			"buffer":0,
			"byteLength":2664,
			"byteOffset":26688,
			"target":34962
		},
		{
			"buffer":0,
			"byteLength":2664,
			"byteOffset":29352,
			"target":34962
		},
		{
			"buffer":0,
			"byteLength":1776,
			"byteOffset":32016,
			"target":34962
		},
		{
			"buffer":0,
			"byteLength":3552,
			"byteOffset":33792,
			"target":34962
		},
		{
			"buffer":0,
			"byteLength":1848,
			"byteOffset":37344,
			"target":34963
		},
		{
			"buffer":0,
			"byteLength":96,
			"byteOffset":39192,
			"target":34962
		},
		{
			"buffer":0,
			"byteLength":96,
			"byteOffset":39288,
			"target":34962
		},
		{
			"buffer":0,
			"byteLength":64,
			"byteOffset":39384,
			"target":34962
		},
		{
			"buffer":0,
			"byteLength":128,
			"byteOffset":39448,
			"target":34962
		},
		{
			"buffer":0,
			"byteLength":24,
			"byteOffset":39576,
			"target":34963
		},
		{
			"buffer":0,
			"byteLength":192,
			"byteOffset":39600,
			"target":34962
		},
		{
			"buffer":0,
			"byteLength":192,
			"byteOffset":39792,
			"target":34962
		},
		{
			"buffer":0,
			"byteLength":128,
			"byteOffset":39984,
			"target":34962
		},
		{
			"buffer":0,
			"byteLength":256,
			"byteOffset":40112,
			"target":34962
		},
		{
			"buffer":0,
			"byteLength":96,
			"byteOffset":40368,
			"target":34963
		},
		{
			"buffer":0,
			"byteLength":6408,
			"byteOffset":40464,
			"target":34962
		},
		{
			"buffer":0,
			"byteLength":6408,
			"byteOffset":46872,
			"target":34962
		},
		{
			"buffer":0,
			"byteLength":4272,
			"byteOffset":53280,
			"target":34962
		},
		{
			"buffer":0,
			"byteLength":8544,
			"byteOffset":57552,
			"target":34962
		},
		{
			"buffer":0,
			"byteLength":5280,
			"byteOffset":66096,
			"target":34963
		},
		{
			"buffer":0,
			"byteLength":756,
			"byteOffset":71376,
			"target":34962
		},
		{
			"buffer":0,
			"byteLength":756,
			"byteOffset":72132,
			"target":34962
		},
		{
			"buffer":0,
			"byteLength":504,
			"byteOffset":72888,
			"target":34962
		},
		{
			"buffer":0,
			"byteLength":1008,
			"byteOffset":73392,
			"target":34962
		},
		{
			"buffer":0,
			"byteLength":480,
			"byteOffset":74400,
			"target":34963
		}
	],
	"buffers":[
		{
			"byteLength":74880,
			"uri":"OldMan-40b8e56084c6d2a1c720c9ca32acd52f.bin"
		}
	]
}
