{
	"asset":{
		"generator":"Khronos glTF Blender I/O v5.0.21",
		"version":"2.0"
	},
	"scene":0,
	"scenes":[
		{
			"name":"Scene",
			"nodes":[
				0
			]
		}
	],
	"nodes":[
		{
			"mesh":0,
			"name":"Cylinder",
			"rotation":[
				0.6893327236175537,
				0.1575448215007782,
				0.157544806599617,
				0.6893327236175537
			],
			"translation":[
				0.3780723512172699,
				0,
				0
			]
		}
	],
	"animations":[
		{
			"channels":[
				{
					"sampler":0,
					"target":{
						"node":0,
						"path":"translation"
					}
				},
				{
					"sampler":1,
					"target":{
						"node":0,
						"path":"rotation"
					}
				},
				{
					"sampler":2,
					"target":{
						"node":0,
						"path":"scale"
					}
				}
			],
			"name":"Block",
			"samplers":[
				{
					"input":8,
					"interpolation":"LINEAR",
					"output":9
				},
				{
					"input":10,
					"interpolation":"STEP",
					"output":11
				},
				{
					"input":10,
					"interpolation":"STEP",
					"output":12
				}
			]
		}
	],
	"materials":[
		{
			"doubleSided":true,
			"name":"Material.001",
			"pbrMetallicRoughness":{
				"baseColorFactor":[
					0.07834918797016144,
					0.019892776384949684,
					0.0033405947033315897,
					1
				],
				"metallicFactor":0,
				"roughnessFactor":0.5341296792030334
			}
		},
		{
			"doubleSided":true,
			"name":"Material.002",
			"pbrMetallicRoughness":{
				"baseColorFactor":[
					0.02311418391764164,
					0.008695602416992188,
					0.001914882566779852,
					1
				],
				"metallicFactor":0.552901029586792,
				"roughnessFactor":0.35324233770370483
			}
		}
	],
	"meshes":[
		{
			"name":"Cylinder",
			"primitives":[
				{
					"attributes":{
						"POSITION":0,
						"NORMAL":1,
						"TEXCOORD_0":2
					},
					"indices":3,
					"material":0
				},
				{
					"attributes":{
						"POSITION":4,
						"NORMAL":5,
						"TEXCOORD_0":6
					},
					"indices":7,
					"material":1
				}
			]
		}
	],
	"accessors":[
		{
			"bufferView":0,
			"componentType":5126,
			"count":225,
			"max":[
				1.000127911567688,
				0.11715999990701675,
				-0.06934511661529541
			],
			"min":[
				-1.000127911567688,
				-0.02701166458427906,
				-2.069344997406006
			],
			"type":"VEC3"
		},
		{
			"bufferView":1,
			"componentType":5126,
			"count":225,
			"type":"VEC3"
		},
		{
			"bufferView":2,
			"componentType":5126,
			"count":225,
			"type":"VEC2"
		},
		{
			"bufferView":3,
			"componentType":5123,
			"count":432,
			"type":"SCALAR"
		},
		{
			"bufferView":4,
			"componentType":5126,
			"count":36,
			"max":[
				1.000127911567688,
				0.126017764210701,
				-1.0693451166152954
			],
			"min":[
				-1.000127911567688,
				0.027011537924408913,
				-1.1668903827667236
			],
			"type":"VEC3"
		},
		{
			"bufferView":5,
			"componentType":5126,
			"count":36,
			"type":"VEC3"
		},
		{
			"bufferView":6,
			"componentType":5126,
			"count":36,
			"type":"VEC2"
		},
		{
			"bufferView":7,
			"componentType":5123,
			"count":54,
			"type":"SCALAR"
		},
		{
			"bufferView":8,
			"componentType":5126,
			"count":10,
			"max":[
				0.4166666666666667
			],
			"min":[
				0.041666666666666664
			],
			"type":"SCALAR"
		},
		{
			"bufferView":9,
			"componentType":5126,
			"count":10,
			"type":"VEC3"
		},
		{
			"bufferView":10,
			"componentType":5126,
			"count":2,
			"max":[
				0.4166666666666667
			],
			"min":[
				0.041666666666666664
			],
			"type":"SCALAR"
		},
		{
			"bufferView":11,
			"componentType":5126,
			"count":2,
			"type":"VEC4"
		},
		{
			"bufferView":12,
			"componentType":5126,
			"count":2,
			"type":"VEC3"
		}
	],
	"bufferViews":[
		{
			"buffer":0,
			"byteLength":2700,
			"byteOffset":0,
			"target":34962
		},
		{
			"buffer":0,
			"byteLength":2700,
			"byteOffset":2700,
			"target":34962
		},
		{
			"buffer":0,
			"byteLength":1800,
			"byteOffset":5400,
			"target":34962
		},
		{
			"buffer":0,
			"byteLength":864,
			"byteOffset":7200,
			"target":34963
		},
		{
			"buffer":0,
			"byteLength":432,
			"byteOffset":8064,
			"target":34962
		},
		{
			"buffer":0,
			"byteLength":432,
			"byteOffset":8496,
			"target":34962
		},
		{
			"buffer":0,
			"byteLength":288,
			"byteOffset":8928,
			"target":34962
		},
		{
			"buffer":0,
			"byteLength":108,
			"byteOffset":9216,
			"target":34963
		},
		{
			"buffer":0,
			"byteLength":40,
			"byteOffset":9324
		},
		{
			"buffer":0,
			"byteLength":120,
			"byteOffset":9364
		},
		{
			"buffer":0,
			"byteLength":8,
			"byteOffset":9484
		},
		{
			"buffer":0,
			"byteLength":32,
			"byteOffset":9492
		},
		{
			"buffer":0,
			"byteLength":24,
			"byteOffset":9524
		}
	],
	"buffers":[
		{
			"byteLength":9548,
			"uri":"shield-c4635e3a2746e2e6ff7b117890336e34.bin"
		}
	]
}
