{
	"asset":{
		"generator":"Khronos glTF Blender I/O v5.0.21",
		"version":"2.0"
	},
	"scene":0,
	"scenes":[
		{
			"name":"Scene",
			"nodes":[
				0,
				1
			]
		}
	],
	"nodes":[
		{
			"mesh":0,
			"name":"Cube",
			"scale":[
				1,
				1.7358981370925903,
				2.098484992980957
			],
			"translation":[
				0,
				1.6464495658874512,
				0
			]
		},
		{
			"mesh":1,
			"name":"Cube.003",
			"rotation":[
				-0.06891832500696182,
				0.708495557308197,
				0.06799882650375366,
				0.6990426182746887
			],
			"scale":[
				0.0002961985592264682,
				0.0004309764481149614,
				0.02315233089029789
			],
			"translation":[
				-0.02298559434711933,
				1.723449945449829,
				0.03727109730243683
			]
		}
	],
	"materials":[
		{
			"doubleSided":true,
			"name":"Material",
			"pbrMetallicRoughness":{
				"baseColorFactor":[
					0.8000074625015259,
					0.6640185117721558,
					0.02818656899034977,
					1
				],
				"metallicFactor":0.6757678985595703,
				"roughnessFactor":0.17918089032173157
			}
		},
		{
			"doubleSided":true,
			"name":"Material.001",
			"pbrMetallicRoughness":{
				"baseColorFactor":[
					0.2320287823677063,
					0.2320287823677063,
					0.2320287823677063,
					1
				],
				"metallicFactor":0,
				"roughnessFactor":0.9266211986541748
			}
		},
		{
			"doubleSided":true,
			"name":"Material.002",
			"pbrMetallicRoughness":{
				"baseColorFactor":[
					0.8000074625015259,
					0.08754876255989075,
					0,
					1
				],
				"metallicFactor":0,
				"roughnessFactor":0.5
			}
		}
	],
	"meshes":[
		{
			"name":"Cube",
			"primitives":[
				{
					"attributes":{
						"POSITION":0,
						"NORMAL":1,
						"TEXCOORD_0":2,
						"TANGENT":3
					},
					"indices":4,
					"material":0
				},
				{
					"attributes":{
						"POSITION":5,
						"NORMAL":6,
						"TEXCOORD_0":7,
						"TANGENT":8
					},
					"indices":9,
					"material":1
				}
			]
		},
		{
			"name":"Cube.003",
			"primitives":[
				{
					"attributes":{
						"POSITION":10,
						"NORMAL":11,
						"TEXCOORD_0":12,
						"TANGENT":13
					},
					"indices":14,
					"material":2
				}
			]
		}
	],
	"accessors":[
		{
			"bufferView":0,
			"componentType":5126,
			"count":68,
			"max":[
				0.34867212176322937,
				0.037139199674129486,
				0.1482440084218979
			],
			"min":[
				-0.34736981987953186,
				-0.744139552116394,
				-0.1482440084218979
			],
			"type":"VEC3"
		},
		{
			"bufferView":1,
			"componentType":5126,
			"count":68,
			"type":"VEC3"
		},
		{
			"bufferView":2,
			"componentType":5126,
			"count":68,
			"type":"VEC2"
		},
		{
			"bufferView":3,
			"componentType":5126,
			"count":68,
			"type":"VEC4"
		},
		{
			"bufferView":4,
			"componentType":5123,
			"count":102,
			"type":"SCALAR"
		},
		{
			"bufferView":5,
			"componentType":5126,
			"count":88,
			"max":[
				0.34867212176322937,
				0.037139199674129486,
				0.1482440084218979
			],
			"min":[
				-0.34736981987953186,
				-0.744139552116394,
				-0.1482440084218979
			],
			"type":"VEC3"
		},
		{
			"bufferView":6,
			"componentType":5126,
			"count":88,
			"type":"VEC3"
		},
		{
			"bufferView":7,
			"componentType":5126,
			"count":88,
			"type":"VEC2"
		},
		{
			"bufferView":8,
			"componentType":5126,
			"count":88,
			"type":"VEC4"
		},
		{
			"bufferView":9,
			"componentType":5123,
			"count":138,
			"type":"SCALAR"
		},
		{
			"bufferView":10,
			"componentType":5126,
			"count":520,
			"max":[
				220.1307373046875,
				34.26300811767578,
				1.0367770195007324
			],
			"min":[
				-1.072167992591858,
				-40.4858283996582,
				-1.2099335193634033
			],
			"type":"VEC3"
		},
		{
			"bufferView":11,
			"componentType":5126,
			"count":520,
			"type":"VEC3"
		},
		{
			"bufferView":12,
			"componentType":5126,
			"count":520,
			"type":"VEC2"
		},
		{
			"bufferView":13,
			"componentType":5126,
			"count":520,
			"type":"VEC4"
		},
		{
			"bufferView":14,
			"componentType":5123,
			"count":1008,
			"type":"SCALAR"
		}
	],
	"bufferViews":[
		{
			"buffer":0,
			"byteLength":816,
			"byteOffset":0,
			"target":34962
		},
		{
			"buffer":0,
			"byteLength":816,
			"byteOffset":816,
			"target":34962
		},
		{
			"buffer":0,
			"byteLength":544,
			"byteOffset":1632,
			"target":34962
		},
		{
			"buffer":0,
			"byteLength":1088,
			"byteOffset":2176,
			"target":34962
		},
		{
			"buffer":0,
			"byteLength":204,
			"byteOffset":3264,
			"target":34963
		},
		{
			"buffer":0,
			"byteLength":1056,
			"byteOffset":3468,
			"target":34962
		},
		{
			"buffer":0,
			"byteLength":1056,
			"byteOffset":4524,
			"target":34962
		},
		{
			"buffer":0,
			"byteLength":704,
			"byteOffset":5580,
			"target":34962
		},
		{
			"buffer":0,
			"byteLength":1408,
			"byteOffset":6284,
			"target":34962
		},
		{
			"buffer":0,
			"byteLength":276,
			"byteOffset":7692,
			"target":34963
		},
		{
			"buffer":0,
			"byteLength":6240,
			"byteOffset":7968,
			"target":34962
		},
		{
			"buffer":0,
			"byteLength":6240,
			"byteOffset":14208,
			"target":34962
		},
		{
			"buffer":0,
			"byteLength":4160,
			"byteOffset":20448,
			"target":34962
		},
		{
			"buffer":0,
			"byteLength":8320,
			"byteOffset":24608,
			"target":34962
		},
		{
			"buffer":0,
			"byteLength":2016,
			"byteOffset":32928,
			"target":34963
		}
	],
	"buffers":[
		{
			"byteLength":34944,
			"uri":"stand_w_glasses-a6e7be30aa9c94a532135fb3ab2423b1.bin"
		}
	]
}
