{
	"asset":{
		"generator":"Khronos glTF Blender I/O v5.0.21",
		"version":"2.0"
	},
	"scene":0,
	"scenes":[
		{
			"name":"Scene",
			"nodes":[
				0
			]
		}
	],
	"nodes":[
		{
			"mesh":0,
			"name":"Cube",
			"scale":[
				1,
				1.7358981370925903,
				2.098484992980957
			],
			"translation":[
				0,
				1.6464495658874512,
				0
			]
		}
	],
	"materials":[
		{
			"doubleSided":true,
			"name":"Material",
			"pbrMetallicRoughness":{
				"baseColorFactor":[
					0.8000074625015259,
					0.6640185117721558,
					0.02818656899034977,
					1
				],
				"metallicFactor":0.6757678985595703,
				"roughnessFactor":0.17918089032173157
			}
		},
		{
			"doubleSided":true,
			"name":"Material.001",
			"pbrMetallicRoughness":{
				"baseColorFactor":[
					0.2320287823677063,
					0.2320287823677063,
					0.2320287823677063,
					1
				],
				"metallicFactor":0,
				"roughnessFactor":0.9266211986541748
			}
		}
	],
	"meshes":[
		{
			"name":"Cube",
			"primitives":[
				{
					"attributes":{
						"POSITION":0,
						"NORMAL":1,
						"TEXCOORD_0":2,
						"TANGENT":3
					},
					"indices":4,
					"material":0
				},
				{
					"attributes":{
						"POSITION":5,
						"NORMAL":6,
						"TEXCOORD_0":7,
						"TANGENT":8
					},
					"indices":9,
					"material":1
				}
			]
		}
	],
	"accessors":[
		{
			"bufferView":0,
			"componentType":5126,
			"count":68,
			"max":[
				0.34867212176322937,
				0.037139199674129486,
				0.1482440084218979
			],
			"min":[
				-0.34736981987953186,
				-0.744139552116394,
				-0.1482440084218979
			],
			"type":"VEC3"
		},
		{
			"bufferView":1,
			"componentType":5126,
			"count":68,
			"type":"VEC3"
		},
		{
			"bufferView":2,
			"componentType":5126,
			"count":68,
			"type":"VEC2"
		},
		{
			"bufferView":3,
			"componentType":5126,
			"count":68,
			"type":"VEC4"
		},
		{
			"bufferView":4,
			"componentType":5123,
			"count":102,
			"type":"SCALAR"
		},
		{
			"bufferView":5,
			"componentType":5126,
			"count":88,
			"max":[
				0.34867212176322937,
				0.037139199674129486,
				0.1482440084218979
			],
			"min":[
				-0.34736981987953186,
				-0.744139552116394,
				-0.1482440084218979
			],
			"type":"VEC3"
		},
		{
			"bufferView":6,
			"componentType":5126,
			"count":88,
			"type":"VEC3"
		},
		{
			"bufferView":7,
			"componentType":5126,
			"count":88,
			"type":"VEC2"
		},
		{
			"bufferView":8,
			"componentType":5126,
			"count":88,
			"type":"VEC4"
		},
		{
			"bufferView":9,
			"componentType":5123,
			"count":138,
			"type":"SCALAR"
		}
	],
	"bufferViews":[
		{
			"buffer":0,
			"byteLength":816,
			"byteOffset":0,
			"target":34962
		},
		{
			"buffer":0,
			"byteLength":816,
			"byteOffset":816,
			"target":34962
		},
		{
			"buffer":0,
			"byteLength":544,
			"byteOffset":1632,
			"target":34962
		},
		{
			"buffer":0,
			"byteLength":1088,
			"byteOffset":2176,
			"target":34962
		},
		{
			"buffer":0,
			"byteLength":204,
			"byteOffset":3264,
			"target":34963
		},
		{
			"buffer":0,
			"byteLength":1056,
			"byteOffset":3468,
			"target":34962
		},
		{
			"buffer":0,
			"byteLength":1056,
			"byteOffset":4524,
			"target":34962
		},
		{
			"buffer":0,
			"byteLength":704,
			"byteOffset":5580,
			"target":34962
		},
		{
			"buffer":0,
			"byteLength":1408,
			"byteOffset":6284,
			"target":34962
		},
		{
			"buffer":0,
			"byteLength":276,
			"byteOffset":7692,
			"target":34963
		}
	],
	"buffers":[
		{
			"byteLength":7968,
			"uri":"stand-3876306821e5392485d8f70542bb08b5.bin"
		}
	]
}
