{
	"asset":{
		"generator":"Khronos glTF Blender I/O v5.0.21",
		"version":"2.0"
	},
	"scene":0,
	"scenes":[
		{
			"name":"Scene",
			"nodes":[
				0
			]
		}
	],
	"nodes":[
		{
			"mesh":0,
			"name":"Cube.001",
			"rotation":[
				0,
				-0.7050685882568359,
				-0.7091391086578369,
				3.081953181549579e-08
			],
			"scale":[
				1.1989147663116455,
				2.411057472229004,
				1.0000797510147095
			],
			"translation":[
				0.04690295830368996,
				5.847011089324951,
				-0.2082200050354004
			]
		}
	],
	"materials":[
		{
			"doubleSided":true,
			"name":"Material.002",
			"pbrMetallicRoughness":{
				"baseColorFactor":[
					0.39077895879745483,
					0.2752944827079773,
					0.17262721061706543,
					1
				],
				"metallicFactor":0,
				"roughnessFactor":0.5
			}
		},
		{
			"doubleSided":true,
			"name":"Material.005",
			"pbrMetallicRoughness":{
				"baseColorFactor":[
					0.011129903607070446,
					0.17529189586639404,
					0.015609173104166985,
					1
				],
				"metallicFactor":0,
				"roughnessFactor":0.1962457299232483
			}
		}
	],
	"meshes":[
		{
			"name":"Cube.001",
			"primitives":[
				{
					"attributes":{
						"POSITION":0,
						"NORMAL":1,
						"TEXCOORD_0":2
					},
					"indices":3,
					"material":0
				},
				{
					"attributes":{
						"POSITION":4,
						"NORMAL":5,
						"TEXCOORD_0":6
					},
					"indices":7,
					"material":1
				}
			]
		}
	],
	"accessors":[
		{
			"bufferView":0,
			"componentType":5126,
			"count":74,
			"max":[
				0.794966459274292,
				2.676016092300415,
				1.0302953720092773
			],
			"min":[
				-0.8732088804244995,
				-2.6323904991149902,
				-5.801762580871582
			],
			"type":"VEC3"
		},
		{
			"bufferView":1,
			"componentType":5126,
			"count":74,
			"type":"VEC3"
		},
		{
			"bufferView":2,
			"componentType":5126,
			"count":74,
			"type":"VEC2"
		},
		{
			"bufferView":3,
			"componentType":5123,
			"count":114,
			"type":"SCALAR"
		},
		{
			"bufferView":4,
			"componentType":5126,
			"count":92,
			"max":[
				0.7075052261352539,
				2.605550527572632,
				0.7967269420623779
			],
			"min":[
				-0.9606701731681824,
				-2.528506278991699,
				-5.718599319458008
			],
			"type":"VEC3"
		},
		{
			"bufferView":5,
			"componentType":5126,
			"count":92,
			"type":"VEC3"
		},
		{
			"bufferView":6,
			"componentType":5126,
			"count":92,
			"type":"VEC2"
		},
		{
			"bufferView":7,
			"componentType":5123,
			"count":144,
			"type":"SCALAR"
		}
	],
	"bufferViews":[
		{
			"buffer":0,
			"byteLength":888,
			"byteOffset":0,
			"target":34962
		},
		{
			"buffer":0,
			"byteLength":888,
			"byteOffset":888,
			"target":34962
		},
		{
			"buffer":0,
			"byteLength":592,
			"byteOffset":1776,
			"target":34962
		},
		{
			"buffer":0,
			"byteLength":228,
			"byteOffset":2368,
			"target":34963
		},
		{
			"buffer":0,
			"byteLength":1104,
			"byteOffset":2596,
			"target":34962
		},
		{
			"buffer":0,
			"byteLength":1104,
			"byteOffset":3700,
			"target":34962
		},
		{
			"buffer":0,
			"byteLength":736,
			"byteOffset":4804,
			"target":34962
		},
		{
			"buffer":0,
			"byteLength":288,
			"byteOffset":5540,
			"target":34963
		}
	],
	"buffers":[
		{
			"byteLength":5828,
			"uri":"wall2-776cf67d6c27f5f801f0f33ca9c22994.bin"
		}
	]
}
